# xmcd
#
# Track frame offsets: 
#        150
#        11960
#        25200
#        39133
#        50295
#        65103
#        79493
#        93170
#        105958
#        117573
#        130830
#        142490
#        154818
#        167748
#        181310
#        193003
#        206418
#        217278
#        228310
#        240543
#
# Disc length: 3441 seconds
#
# Revision: 6
# Processed by: cddbd v1.5.2PL0 Copyright (c) Steve Scherf et al.
# Submitted via: ExactAudioCopyFreeDBPlugin 1.0
#
DISCID=200d6f14
DTITLE=Sam and Dave - Soul Sister, Brown Sugar
DYEAR=1987
DGENRE=Soul
TTITLE0=Hold On I'm Coming
TTITLE1=Soul Man
TTITLE2=Summertime
TTITLE3=You Don't Know What You Mean To Me
TTITLE4=When Something Is Wrong With My Bab
TTITLE5=You Send Me
TTITLE6=Wonderful World
TTITLE7=Said I Wouldn't Tell Nobody
TTITLE8=Can't You Find Another Way Of Doing
TTITLE9=I Thank You
TTITLE10=Soul Sister, Brown Sugar
TTITLE11=Dock Of The Bay
TTITLE12=You Got Me Hummin'
TTITLE13=Don't Pull Your Love Out On Me Baby
TTITLE14=Soothe Me
TTITLE15=Gimme Some Lovin'
TTITLE16=Bring It On Home
TTITLE17=Another Saturday Night
TTITLE18=You Don't Know Like I Know
TTITLE19=Cupid
EXTD=
EXTT0=
EXTT1=
EXTT2=
EXTT3=
EXTT4=
EXTT5=
EXTT6=
EXTT7=
EXTT8=
EXTT9=
EXTT10=
EXTT11=
EXTT12=
EXTT13=
EXTT14=
EXTT15=
EXTT16=
EXTT17=
EXTT18=
EXTT19=
PLAYORDER=
